<?xml version="1.0" encoding="utf-8"?>
<!-- Generator: Adobe Illustrator 17.1.0, SVG Export Plug-In . SVG Version: 6.00 Build 0)  -->
<!DOCTYPE svg PUBLIC "-//W3C//DTD SVG 1.1//EN" "http://www.w3.org/Graphics/SVG/1.1/DTD/svg11.dtd">
<svg version="1.1" id="Слой_1" xmlns="http://www.w3.org/2000/svg" xmlns:xlink="http://www.w3.org/1999/xlink" x="0px" y="0px"
	 viewBox="0 0 170 50" enable-background="new 0 0 170 50" xml:space="preserve">
<path fill-rule="evenodd" clip-rule="evenodd" fill="#006D3A" d="M155.6,7.4h-5.2c-1.4,0-2.5-1.1-2.5-2.5c0-1.4,1.1-2.5,2.5-2.5
	h15.9c1.4,0,2.5,1.1,2.5,2.5c0,1.4-1.1,2.5-2.5,2.5H161v17.3c0,1.5-1.2,2.7-2.7,2.7c-1.5,0-2.7-1.2-2.7-2.7V7.4L155.6,7.4z
	 M136,14.9L136,14.9c2.7,0,4.3-1.6,4.3-3.8V11c0-2.4-1.7-3.8-4.4-3.8h-4.2v7.6H136L136,14.9z M126.2,5.1L126.2,5.1
	c0-1.5,1.2-2.7,2.7-2.7h7.4c5.9,0,9.5,3.5,9.5,8.6V11c0,5.8-4.5,8.7-10,8.7h-4.1v4.9c0,1.5-1.2,2.7-2.7,2.7c-1.5,0-2.7-1.2-2.7-2.7
	V5.1L126.2,5.1z M102.5,24.4L102.5,24.4V5.1c0-1.5,1.2-2.7,2.7-2.7H119c1.3,0,2.4,1.1,2.4,2.5c0,1.3-1.1,2.4-2.4,2.4h-11v5h9.4
	c1.3,0,2.4,1.1,2.4,2.5c0,1.4-1.1,2.4-2.4,2.4h-9.4v5.2h11.2c1.3,0,2.4,1.1,2.4,2.4c0,1.4-1.1,2.4-2.4,2.4h-13.9
	C103.7,27.2,102.5,26,102.5,24.4L102.5,24.4z M79.4,24.6L79.4,24.6c-0.6-0.4-1-1.2-1-2.1c0-1.4,1.1-2.5,2.5-2.5
	c0.7,0,1.2,0.3,1.6,0.5c1.9,1.4,3.9,2.2,6.3,2.2c2.2,0,3.6-0.9,3.6-2.3v-0.1c0-1.4-0.9-2.1-5-3.2c-5-1.3-8.2-2.7-8.2-7.6V9.5
	C79.2,5,82.8,2,87.9,2c3,0,5.6,0.8,7.8,2.2c0.6,0.4,1.2,1.1,1.2,2.2c0,1.4-1.1,2.5-2.5,2.5c-0.5,0-1-0.1-1.4-0.4
	c-1.8-1.1-3.5-1.7-5.2-1.7c-2.1,0-3.2,1-3.2,2.2V9c0,1.6,1.1,2.2,5.3,3.3c5,1.3,7.8,3.1,7.8,7.5v0.1c0,4.9-3.7,7.7-9.1,7.7
	C85.5,27.5,82.2,26.5,79.4,24.6L79.4,24.6z M69.5,14.8L69.5,14.8L69.5,14.8c0-4.3-3.1-7.9-7.5-7.9c-4.4,0-7.4,3.5-7.4,7.7v0.1
	c0,4.3,3.1,7.8,7.5,7.8C66.5,22.6,69.5,19.1,69.5,14.8L69.5,14.8z M48.9,14.8L48.9,14.8L48.9,14.8c0-7.1,5.5-12.9,13.2-12.9
	c7.6,0,13.1,5.7,13.1,12.8v0.1c0,7.1-5.5,12.9-13.2,12.9C54.4,27.6,48.9,21.9,48.9,14.8L48.9,14.8z M35.4,14.4L35.4,14.4
	c2.6,0,4.2-1.4,4.2-3.5v-0.1c0-2.3-1.6-3.6-4.3-3.6h-5.4v7.1H35.4L35.4,14.4z M24.5,5.1L24.5,5.1c0-1.5,1.2-2.7,2.7-2.7h8.6
	c3.1,0,5.6,0.9,7.2,2.5c1.4,1.4,2.1,3.3,2.1,5.7v0.1c0,3.9-1.9,6.3-4.9,7.6l3.8,4.6c0.5,0.7,0.9,1.2,0.9,2.1c0,1.5-1.3,2.5-2.6,2.5
	c-1.2,0-2.1-0.6-2.7-1.4l-5.3-6.7h-4.3v5.4c0,1.5-1.2,2.7-2.7,2.7c-1.5,0-2.7-1.2-2.7-2.7V5.1L24.5,5.1z M10.6,14.9L10.6,14.9
	c2.7,0,4.3-1.6,4.3-3.8V11c0-2.4-1.7-3.8-4.4-3.8H6.3v7.6H10.6L10.6,14.9z M0.9,5.1L0.9,5.1c0-1.5,1.2-2.7,2.7-2.7H11
	c5.9,0,9.5,3.5,9.5,8.6V11c0,5.8-4.4,8.7-10,8.7H6.3v4.9c0,1.5-1.2,2.7-2.7,2.7c-1.5,0-2.7-1.2-2.7-2.7V5.1L0.9,5.1z"/>
<path fill="#006D3A" d="M165.3,47.3c-0.2,0.4-0.4,0.8-0.6,1c-0.2,0.2-0.5,0.4-0.8,0.5c-0.3,0.1-0.6,0.1-0.9,0.1h-0.7v-1.5h0.4
	c0.4,0,0.6-0.1,0.8-0.2c0.2-0.1,0.3-0.4,0.4-0.7l0.5-1.3l-2.9-8h1.8l2,5.9l1.9-5.9h1.8L165.3,47.3L165.3,47.3z M160,39.2
	c-0.2-0.2-0.4-0.3-0.6-0.4c-0.2-0.1-0.4-0.1-0.7-0.1c-0.5,0-0.9,0.2-1.2,0.5c-0.3,0.3-0.5,0.8-0.5,1.4v5.1h-1.7v-8.4h1.7v0.9
	c0.2-0.3,0.5-0.5,0.9-0.7c0.4-0.2,0.8-0.3,1.3-0.3c0.4,0,0.8,0.1,1.1,0.2c0.3,0.1,0.6,0.3,0.9,0.6L160,39.2L160,39.2z M152.3,45.6
	c-0.4,0-0.7-0.1-1-0.2c-0.3-0.1-0.5-0.3-0.7-0.5c-0.2-0.2-0.3-0.5-0.4-0.7c-0.1-0.3-0.1-0.6-0.1-0.9v-4.6h-1v-1.3h1v-2.5h1.7v2.5
	h1.6v1.3h-1.6v4.5c0,0.3,0.1,0.5,0.2,0.7c0.1,0.2,0.4,0.3,0.7,0.3h0.7v1.4H152.3L152.3,45.6z M147.9,43.1c0,0.4-0.1,0.8-0.3,1.2
	c-0.2,0.3-0.4,0.6-0.7,0.8c-0.3,0.2-0.7,0.4-1.1,0.5c-0.4,0.1-0.9,0.2-1.4,0.2c-0.7,0-1.3-0.1-1.9-0.2c-0.6-0.2-1.1-0.5-1.6-1
	l1.1-1.1c0.3,0.3,0.7,0.6,1.2,0.7c0.4,0.1,0.8,0.2,1.3,0.2c0.5,0,1-0.1,1.3-0.3c0.4-0.2,0.5-0.5,0.5-0.9c0-0.3-0.1-0.5-0.3-0.7
	c-0.2-0.2-0.5-0.3-0.9-0.3l-1.3-0.1c-0.8-0.1-1.4-0.3-1.8-0.7c-0.4-0.4-0.6-0.9-0.6-1.7c0-0.4,0.1-0.8,0.2-1.1
	c0.2-0.3,0.4-0.6,0.7-0.8c0.3-0.2,0.6-0.4,1-0.5c0.4-0.1,0.8-0.2,1.2-0.2c0.6,0,1.2,0.1,1.7,0.2c0.5,0.1,1,0.4,1.4,0.7l-1.1,1.1
	c-0.3-0.2-0.6-0.4-0.9-0.5c-0.4-0.1-0.7-0.1-1.1-0.1c-0.5,0-0.9,0.1-1.1,0.3c-0.2,0.2-0.4,0.5-0.4,0.8c0,0.3,0.1,0.5,0.2,0.6
	c0.2,0.2,0.5,0.3,0.9,0.3l1.3,0.1c0.8,0.1,1.4,0.3,1.8,0.7C147.7,41.7,147.9,42.3,147.9,43.1L147.9,43.1z M137.3,33.8h1.8v1.8h-1.8
	V33.8L137.3,33.8z M137.3,37.2h1.7v8.4h-1.7V37.2L137.3,37.2z M133,45.6v-5.1c0-0.6-0.2-1.1-0.5-1.4c-0.3-0.3-0.7-0.4-1.2-0.4
	c-0.2,0-0.4,0-0.7,0.1c-0.2,0.1-0.4,0.2-0.6,0.3c-0.2,0.2-0.3,0.3-0.4,0.6c-0.1,0.2-0.1,0.5-0.1,0.8v5.2h-1.7v-5.1
	c0-0.6-0.2-1.1-0.5-1.4c-0.3-0.3-0.7-0.4-1.2-0.4c-0.5,0-0.9,0.1-1.2,0.5c-0.3,0.3-0.5,0.8-0.5,1.4v5.1h-1.7v-8.4h1.7v0.8
	c0.3-0.3,0.6-0.5,1-0.7c0.4-0.2,0.8-0.2,1.2-0.2c1.1,0,1.8,0.4,2.4,1.2c0.7-0.8,1.6-1.2,2.6-1.2c0.4,0,0.8,0.1,1.2,0.2
	c0.4,0.1,0.7,0.3,0.9,0.6c0.3,0.3,0.5,0.7,0.7,1.1c0.1,0.4,0.2,0.8,0.2,1.3v5.4H133L133,45.6z M118.9,40.7c0-0.3,0-0.5-0.1-0.6
	c0-0.2-0.1-0.3-0.2-0.5c-0.1-0.3-0.3-0.6-0.6-0.8c-0.3-0.2-0.6-0.3-1-0.3c-0.4,0-0.7,0.1-1,0.3c-0.3,0.2-0.5,0.5-0.6,0.8
	c-0.1,0.2-0.1,0.4-0.2,0.5c0,0.1,0,0.4,0,0.6H118.9L118.9,40.7z M115.2,41.9c0,0.7,0.2,1.3,0.5,1.7c0.4,0.4,0.9,0.6,1.6,0.6
	c0.5,0,0.9-0.1,1.1-0.2c0.3-0.1,0.6-0.4,0.9-0.6l1.1,1c-0.2,0.2-0.4,0.4-0.6,0.6c-0.2,0.2-0.4,0.3-0.7,0.4c-0.2,0.1-0.5,0.2-0.8,0.2
	c-0.3,0.1-0.6,0.1-1,0.1c-0.5,0-1-0.1-1.5-0.2c-0.5-0.1-0.9-0.4-1.2-0.7c-0.3-0.3-0.6-0.8-0.8-1.3c-0.2-0.6-0.3-1.2-0.3-2
	c0-1.4,0.3-2.4,1-3.2c0.6-0.7,1.5-1.1,2.6-1.1c0.6,0,1.1,0.1,1.5,0.3c0.4,0.2,0.8,0.5,1.1,0.8c0.3,0.4,0.5,0.8,0.7,1.3
	c0.2,0.5,0.2,1,0.2,1.6v0.7H115.2L115.2,41.9z M109.6,45.6v-5.1c0-0.6-0.2-1.1-0.5-1.4c-0.3-0.3-0.7-0.4-1.2-0.4
	c-0.5,0-0.9,0.1-1.2,0.4c-0.3,0.3-0.5,0.8-0.5,1.4v5.1h-1.7V33.8h1.7v4.2c0.3-0.3,0.6-0.6,1-0.7c0.4-0.2,0.8-0.2,1.2-0.2
	c0.5,0,0.9,0.1,1.2,0.2c0.4,0.2,0.7,0.4,0.9,0.6c0.3,0.3,0.4,0.6,0.6,1c0.1,0.4,0.2,0.8,0.2,1.3v5.4H109.6L109.6,45.6z M102.6,44.5
	c-0.4,0.4-0.8,0.7-1.2,0.9c-0.4,0.2-0.9,0.3-1.5,0.3c-0.5,0-0.9-0.1-1.4-0.2c-0.4-0.2-0.8-0.4-1.2-0.7c-0.3-0.3-0.6-0.8-0.8-1.3
	c-0.2-0.5-0.3-1.2-0.3-2c0-0.8,0.1-1.4,0.3-2c0.2-0.5,0.5-1,0.8-1.3c0.4-0.3,0.7-0.6,1.2-0.7c0.4-0.2,0.9-0.2,1.4-0.2
	c0.6,0,1.1,0.1,1.5,0.3c0.4,0.2,0.8,0.5,1.2,0.9l-1.2,1.1c-0.3-0.3-0.5-0.5-0.8-0.6c-0.2-0.1-0.5-0.2-0.9-0.2
	c-0.7,0-1.2,0.2-1.5,0.7c-0.2,0.2-0.3,0.5-0.4,0.8c-0.1,0.3-0.1,0.7-0.1,1.2c0,0.5,0,0.9,0.1,1.2c0.1,0.3,0.2,0.6,0.4,0.8
	c0.4,0.5,0.9,0.7,1.5,0.7c0.3,0,0.6-0.1,0.9-0.2c0.2-0.1,0.5-0.3,0.8-0.6L102.6,44.5L102.6,44.5z M89.7,45.6c-0.4,0-0.7-0.1-1-0.2
	c-0.3-0.1-0.5-0.3-0.7-0.5c-0.2-0.2-0.3-0.5-0.4-0.7c-0.1-0.3-0.1-0.6-0.1-0.9v-9.5h1.7v9.4c0,0.3,0.1,0.6,0.2,0.7
	c0.1,0.2,0.4,0.3,0.7,0.3h0.7v1.4H89.7L89.7,45.6z M83.2,41.9h-2c-0.5,0-0.9,0.1-1.1,0.3c-0.3,0.2-0.4,0.5-0.4,0.9
	c0,0.4,0.1,0.7,0.4,0.9c0.2,0.2,0.6,0.3,1.2,0.3c0.3,0,0.6,0,0.9-0.1c0.3,0,0.5-0.2,0.7-0.4c0.2-0.2,0.4-0.6,0.4-1.2V41.9L83.2,41.9
	z M83.2,45.6v-0.8c-0.3,0.3-0.6,0.5-1,0.7c-0.3,0.1-0.8,0.2-1.3,0.2c-0.5,0-1-0.1-1.3-0.2c-0.4-0.1-0.7-0.3-0.9-0.6
	c-0.4-0.5-0.7-1.1-0.7-1.8c0-0.7,0.2-1.3,0.7-1.7c0.5-0.4,1.2-0.7,2.2-0.7h2.2v-0.6c0-0.5-0.1-0.9-0.4-1.2c-0.3-0.3-0.8-0.4-1.4-0.4
	c-0.5,0-0.8,0.1-1.1,0.2c-0.3,0.1-0.5,0.3-0.7,0.6l-1.1-1c0.4-0.5,0.8-0.8,1.3-0.9c0.5-0.2,1-0.3,1.7-0.3c2.3,0,3.5,1,3.5,2.9v5.6
	H83.2L83.2,45.6z M74.4,45.6v-5.1c0-0.6-0.2-1.1-0.5-1.4c-0.3-0.3-0.7-0.4-1.2-0.4c-0.5,0-0.9,0.1-1.2,0.5c-0.3,0.3-0.5,0.8-0.5,1.4
	v5.1h-1.7v-8.4H71v0.8c0.3-0.3,0.6-0.6,1-0.7c0.4-0.2,0.8-0.2,1.2-0.2c0.4,0,0.8,0.1,1.2,0.2c0.3,0.1,0.6,0.3,0.9,0.6
	c0.3,0.3,0.5,0.7,0.7,1.1c0.1,0.4,0.2,0.8,0.2,1.3v5.4H74.4L74.4,45.6z M65.3,41.4c0-0.5,0-0.9-0.1-1.3c-0.1-0.4-0.2-0.7-0.5-1
	c-0.3-0.3-0.7-0.5-1.2-0.5c-0.5,0-0.9,0.2-1.2,0.5c-0.3,0.3-0.4,0.6-0.5,1c-0.1,0.4-0.1,0.8-0.1,1.3c0,0.5,0,0.9,0.1,1.3
	c0.1,0.4,0.2,0.7,0.5,1c0.3,0.3,0.7,0.5,1.2,0.5c0.5,0,0.9-0.2,1.2-0.5c0.3-0.3,0.4-0.6,0.5-1C65.3,42.3,65.3,41.9,65.3,41.4
	L65.3,41.4z M67,41.4c0,0.7-0.1,1.3-0.2,1.9c-0.1,0.5-0.4,1-0.8,1.4c-0.3,0.3-0.6,0.5-1,0.7c-0.4,0.2-0.9,0.3-1.5,0.3
	c-0.6,0-1.1-0.1-1.5-0.3c-0.4-0.2-0.7-0.4-1-0.7c-0.4-0.4-0.7-0.9-0.8-1.4c-0.1-0.5-0.2-1.2-0.2-1.9c0-0.7,0.1-1.3,0.2-1.9
	c0.1-0.5,0.4-1,0.8-1.4c0.3-0.3,0.6-0.5,1-0.7c0.4-0.2,0.9-0.3,1.5-0.3c0.6,0,1.1,0.1,1.5,0.3c0.4,0.2,0.8,0.4,1,0.7
	c0.4,0.4,0.7,0.9,0.8,1.4C67,40.1,67,40.7,67,41.4L67,41.4z M56,33.8h1.8v1.8H56V33.8L56,33.8z M56.1,37.2h1.7v8.4h-1.7V37.2
	L56.1,37.2z M54,43.1c0,0.4-0.1,0.8-0.3,1.2c-0.2,0.3-0.4,0.6-0.7,0.8c-0.3,0.2-0.7,0.4-1.1,0.5c-0.4,0.1-0.9,0.2-1.4,0.2
	c-0.7,0-1.3-0.1-1.9-0.2c-0.6-0.2-1.1-0.5-1.6-1l1.1-1.1c0.3,0.3,0.7,0.6,1.1,0.7c0.4,0.1,0.8,0.2,1.3,0.2c0.5,0,1-0.1,1.3-0.3
	c0.3-0.2,0.5-0.5,0.5-0.9c0-0.3-0.1-0.5-0.3-0.7c-0.2-0.2-0.5-0.3-0.9-0.3L49.9,42c-0.8-0.1-1.4-0.3-1.8-0.7
	c-0.4-0.4-0.6-0.9-0.6-1.7c0-0.4,0.1-0.8,0.3-1.1c0.2-0.3,0.4-0.6,0.7-0.8c0.3-0.2,0.6-0.4,1-0.5c0.4-0.1,0.8-0.2,1.2-0.2
	c0.6,0,1.2,0.1,1.7,0.2c0.5,0.1,1,0.4,1.4,0.7l-1.1,1.1c-0.3-0.2-0.6-0.4-0.9-0.5c-0.4-0.1-0.7-0.1-1.1-0.1c-0.5,0-0.9,0.1-1.1,0.3
	c-0.3,0.2-0.4,0.5-0.4,0.8c0,0.3,0.1,0.5,0.2,0.6c0.2,0.2,0.5,0.3,0.9,0.3l1.3,0.1c0.8,0.1,1.4,0.3,1.8,0.7
	C53.8,41.7,54,42.3,54,43.1L54,43.1z M45.9,43.1c0,0.4-0.1,0.8-0.3,1.2c-0.2,0.3-0.4,0.6-0.7,0.8c-0.3,0.2-0.7,0.4-1.1,0.5
	c-0.4,0.1-0.9,0.2-1.4,0.2c-0.7,0-1.3-0.1-1.9-0.2c-0.6-0.2-1.1-0.5-1.6-1l1.1-1.1c0.3,0.3,0.7,0.6,1.1,0.7c0.4,0.1,0.8,0.2,1.3,0.2
	c0.5,0,1-0.1,1.3-0.3c0.4-0.2,0.5-0.5,0.5-0.9c0-0.3-0.1-0.5-0.3-0.7c-0.2-0.2-0.5-0.3-0.9-0.3L41.8,42c-0.8-0.1-1.4-0.3-1.8-0.7
	c-0.4-0.4-0.6-0.9-0.6-1.7c0-0.4,0.1-0.8,0.2-1.1c0.2-0.3,0.4-0.6,0.7-0.8c0.3-0.2,0.6-0.4,1-0.5c0.4-0.1,0.8-0.2,1.2-0.2
	c0.6,0,1.2,0.1,1.7,0.2c0.5,0.1,1,0.4,1.4,0.7l-1.1,1.1c-0.3-0.2-0.6-0.4-0.9-0.5c-0.4-0.1-0.7-0.1-1.1-0.1c-0.5,0-0.9,0.1-1.1,0.3
	c-0.3,0.2-0.4,0.5-0.4,0.8c0,0.3,0.1,0.5,0.2,0.6c0.2,0.2,0.5,0.3,0.9,0.3l1.3,0.1c0.8,0.1,1.4,0.3,1.8,0.7
	C45.7,41.7,45.9,42.3,45.9,43.1L45.9,43.1z M35.8,40.7c0-0.3,0-0.5-0.1-0.6c0-0.2-0.1-0.3-0.2-0.5c-0.1-0.3-0.3-0.6-0.6-0.8
	c-0.3-0.2-0.6-0.3-1-0.3c-0.4,0-0.7,0.1-1,0.3c-0.3,0.2-0.5,0.5-0.6,0.8c-0.1,0.2-0.1,0.4-0.2,0.5c0,0.1,0,0.4,0,0.6H35.8L35.8,40.7
	z M32,41.9c0,0.7,0.2,1.3,0.5,1.7c0.4,0.4,0.9,0.6,1.6,0.6c0.5,0,0.9-0.1,1.1-0.2c0.3-0.1,0.6-0.4,0.9-0.6l1.1,1
	c-0.2,0.2-0.4,0.4-0.7,0.6c-0.2,0.2-0.4,0.3-0.7,0.4c-0.2,0.1-0.5,0.2-0.8,0.2c-0.3,0.1-0.6,0.1-1,0.1c-0.5,0-1-0.1-1.5-0.2
	c-0.5-0.1-0.9-0.4-1.2-0.7c-0.3-0.3-0.6-0.8-0.8-1.3c-0.2-0.6-0.3-1.2-0.3-2c0-1.4,0.3-2.4,1-3.2c0.6-0.7,1.5-1.1,2.6-1.1
	c0.6,0,1.1,0.1,1.5,0.3c0.4,0.2,0.8,0.5,1.1,0.8c0.3,0.4,0.5,0.8,0.7,1.3c0.2,0.5,0.2,1,0.2,1.6v0.7H32L32,41.9z M27.6,38.7v6.9
	h-1.7v-6.9h-1v-1.3h1v-1.3c0-0.3,0-0.6,0.1-0.9c0.1-0.3,0.2-0.5,0.4-0.7c0.2-0.2,0.4-0.4,0.7-0.5c0.3-0.1,0.6-0.2,1-0.2h1.1v1.4
	h-0.7c-0.3,0-0.5,0.1-0.7,0.3c-0.1,0.2-0.2,0.4-0.2,0.7v1.2h1.7v1.3H27.6L27.6,38.7z M21.7,41.4c0-0.5,0-0.9-0.1-1.3
	c-0.1-0.4-0.2-0.7-0.5-1c-0.3-0.3-0.7-0.5-1.2-0.5c-0.5,0-0.9,0.2-1.2,0.5c-0.3,0.3-0.4,0.6-0.5,1C18.1,40.5,18,41,18,41.4
	c0,0.5,0,0.9,0.1,1.3c0.1,0.4,0.2,0.7,0.5,1c0.3,0.3,0.7,0.5,1.2,0.5c0.5,0,0.9-0.2,1.2-0.5c0.3-0.3,0.4-0.6,0.5-1
	C21.6,42.3,21.7,41.9,21.7,41.4L21.7,41.4z M23.3,41.4c0,0.7-0.1,1.3-0.2,1.9c-0.1,0.5-0.4,1-0.8,1.4c-0.3,0.3-0.6,0.5-1,0.7
	c-0.4,0.2-0.9,0.3-1.5,0.3c-0.6,0-1.1-0.1-1.5-0.3c-0.4-0.2-0.7-0.4-1-0.7c-0.4-0.4-0.7-0.9-0.8-1.4c-0.1-0.5-0.2-1.2-0.2-1.9
	c0-0.7,0.1-1.3,0.2-1.9c0.1-0.5,0.4-1,0.8-1.4c0.3-0.3,0.6-0.5,1-0.7c0.4-0.2,0.9-0.3,1.5-0.3c0.6,0,1.1,0.1,1.5,0.3
	c0.4,0.2,0.8,0.4,1,0.7c0.4,0.4,0.7,0.9,0.8,1.4C23.3,40.1,23.3,40.7,23.3,41.4L23.3,41.4z M14.6,39.2c-0.2-0.2-0.4-0.3-0.6-0.4
	c-0.2-0.1-0.4-0.1-0.7-0.1c-0.5,0-0.9,0.2-1.2,0.5c-0.3,0.3-0.5,0.8-0.5,1.4v5.1H10v-8.4h1.7v0.9c0.2-0.3,0.5-0.5,0.9-0.7
	c0.4-0.2,0.8-0.3,1.3-0.3c0.4,0,0.8,0.1,1.1,0.2c0.3,0.1,0.6,0.3,0.9,0.6L14.6,39.2L14.6,39.2z M6,41.4C6,41,6,40.7,6,40.3
	c0-0.3-0.1-0.6-0.2-0.9c-0.1-0.3-0.3-0.5-0.5-0.6c-0.2-0.1-0.5-0.2-0.9-0.2c-0.4,0-0.7,0.1-0.9,0.2C3.2,39,3,39.2,2.9,39.5
	c-0.1,0.2-0.2,0.5-0.2,0.9c0,0.3-0.1,0.7-0.1,1.1c0,0.4,0,0.7,0.1,1.1c0,0.3,0.1,0.6,0.2,0.9C3,43.6,3.2,43.8,3.4,44
	c0.2,0.1,0.5,0.2,0.9,0.2c0.4,0,0.7-0.1,0.9-0.2c0.2-0.2,0.4-0.4,0.5-0.6c0.1-0.3,0.2-0.6,0.2-0.9C6,42.1,6,41.8,6,41.4L6,41.4z
	 M7.7,41.4c0,0.3,0,0.6,0,1c0,0.3-0.1,0.7-0.1,1c-0.1,0.3-0.2,0.6-0.3,0.9C7.2,44.5,7,44.8,6.8,45c-0.2,0.2-0.5,0.4-0.9,0.5
	c-0.4,0.1-0.7,0.2-1.2,0.2c-0.4,0-0.9-0.1-1.2-0.2c-0.3-0.1-0.7-0.4-1-0.8V49H0.9V37.2h1.6v0.9c0.3-0.4,0.7-0.6,1-0.8
	c0.3-0.1,0.8-0.2,1.2-0.2c0.4,0,0.8,0.1,1.2,0.2c0.4,0.1,0.6,0.3,0.9,0.5c0.2,0.2,0.4,0.4,0.5,0.7c0.1,0.3,0.2,0.6,0.3,0.9
	c0.1,0.3,0.1,0.6,0.1,1C7.7,40.8,7.7,41.1,7.7,41.4L7.7,41.4z"/>
</svg>
