<svg width="166" height="106" viewBox="0 0 166 106" fill="none" xmlns="http://www.w3.org/2000/svg">
<path fill-rule="evenodd" clip-rule="evenodd" d="M152.9 64.8H147.7C146.3 64.8 145.2 63.7 145.2 62.3C145.2 60.9 146.3 59.8 147.7 59.8H163.4C164.8 59.8 165.9 60.9 165.9 62.3C165.9 63.7 164.8 64.8 163.4 64.8H158.2V81.9C158.2 83.4 157 84.6 155.5 84.6C154 84.6 152.8 83.4 152.8 81.9V64.8H152.9ZM133.5 72.2C136.2 72.2 137.8 70.6 137.8 68.5V68.4C137.8 66 136.1 64.7 133.4 64.7H129.2V72.2H133.5ZM123.9 62.5C123.9 61 125.1 59.8 126.6 59.8H133.9C139.7 59.8 143.3 63.3 143.3 68.3V68.4C143.3 74.1 138.9 77 133.4 77H129.3V81.9C129.3 83.4 128.1 84.6 126.6 84.6C125.1 84.6 123.9 83.4 123.9 81.9V62.5ZM100.5 81.7V62.5C100.5 61 101.7 59.8 103.2 59.8H116.7C118 59.8 119.1 60.9 119.1 62.2C119.1 63.5 118 64.6 116.7 64.6H105.8V69.6H115.1C116.4 69.6 117.5 70.7 117.5 72C117.5 73.3 116.4 74.4 115.1 74.4H105.8V79.6H116.9C118.2 79.6 119.3 80.7 119.3 82C119.3 83.3 118.2 84.4 116.9 84.4H103.2C101.6 84.4 100.5 83.2 100.5 81.7ZM77.6 81.8C77 81.4 76.6 80.6 76.6 79.8C76.6 78.4 77.7 77.3 79.1 77.3C79.8 77.3 80.3 77.6 80.6 77.8C82.5 79.2 84.5 80 86.9 80C89.1 80 90.4 79.1 90.4 77.7V77.6C90.4 76.2 89.6 75.5 85.5 74.5C80.6 73.2 77.4 71.9 77.4 67V66.9C77.4 62.4 81 59.5 86 59.5C89 59.5 91.6 60.3 93.8 61.7C94.4 62.1 95 62.8 95 63.8C95 65.2 93.9 66.3 92.5 66.3C92 66.3 91.6 66.2 91.1 65.9C89.3 64.8 87.6 64.3 86 64.3C83.9 64.3 82.9 65.2 82.9 66.4V66.5C82.9 68.1 83.9 68.6 88.2 69.7C93.2 71 96 72.8 96 77.1V77.2C96 82.1 92.3 84.8 87 84.8C83.6 84.7 80.3 83.8 77.6 81.8ZM67.9 72.2C67.9 67.9 64.8 64.4 60.5 64.4C56.2 64.4 53.2 67.8 53.2 72V72.1C53.2 76.3 56.3 79.8 60.6 79.8C64.9 79.8 67.9 76.4 67.9 72.2ZM47.5 72.2C47.5 65.1 53 59.4 60.5 59.4C68 59.4 73.5 65.1 73.5 72V72.1C73.5 79.1 68 84.8 60.5 84.8C52.9 84.8 47.5 79.2 47.5 72.2ZM34.2 71.8C36.8 71.8 38.3 70.4 38.3 68.3V68.2C38.3 65.9 36.7 64.7 34.1 64.7H28.8V71.8H34.2ZM23.3 62.5C23.3 61 24.5 59.8 26 59.8H34.5C37.6 59.8 40 60.7 41.6 62.3C43 63.7 43.7 65.6 43.7 67.9V68C43.7 71.9 41.8 74.2 38.8 75.5L42.5 80.1C43 80.8 43.4 81.3 43.4 82.2C43.4 83.7 42.1 84.7 40.8 84.7C39.6 84.7 38.8 84.1 38.1 83.3L32.9 76.6H28.6V82C28.6 83.5 27.4 84.7 25.9 84.7C24.4 84.7 23.2 83.5 23.2 82V62.5H23.3ZM9.60001 72.2C12.3 72.2 13.9 70.6 13.9 68.5V68.4C13.9 66 12.2 64.7 9.5 64.7H5.3V72.2H9.60001ZM0 62.5C0 61 1.2 59.8 2.7 59.8H10C15.8 59.8 19.4 63.3 19.4 68.3V68.4C19.4 74.1 15 77 9.5 77H5.39999V81.9C5.39999 83.4 4.2 84.6 2.7 84.6C1.2 84.6 0 83.4 0 81.9V62.5V62.5Z" fill="#007D42"/>
<path fill-rule="evenodd" clip-rule="evenodd" d="M88.4002 2.70001C88.3002 2.70001 88.3002 2.70001 88.4002 2.70001C88.3002 2.70001 88.3002 2.80001 88.4002 2.70001C88.4002 2.70001 88.4002 2.80001 88.4002 2.70001C88.9002 2.50001 89.3002 2.40002 89.8002 2.30002C89.9002 2.60002 90.0002 2.90001 90.1002 3.20001C90.4002 3.20001 90.6002 3.30002 90.9002 3.30002C90.9002 3.50002 90.8002 3.70002 90.8002 3.90002C91.1002 3.80002 91.4002 3.80001 91.7002 3.70001C91.7002 3.90001 91.7002 4.00001 91.8002 4.20001C92.1002 4.00001 92.1002 4 92.3002 4C92.5002 4.2 92.7002 4.50001 92.9002 4.70001H93.1002C93.2002 4.50001 93.2002 4.2 93.3002 4C93.6002 4.1 93.8002 4.30001 94.3002 4.60001C95.2002 4.70001 95.2002 4.70002 95.5002 4.80002C95.5002 5.20002 95.3002 5.50002 95.1002 5.80002C95.3002 5.80002 95.6002 5.90002 95.8002 5.90002C95.8002 6.60002 96.3002 7.00001 96.2002 7.70001C96.0002 7.80001 95.8002 7.90002 95.6002 7.90002C95.8002 8.10002 95.8002 8.10001 96.4002 8.20001C96.3002 8.40001 96.2002 8.50001 96.1002 8.70001C96.4002 8.80001 96.8002 8.80002 97.1002 8.90002C97.0002 9.20002 96.9002 9.40001 96.9002 9.70001C97.3002 9.70001 97.7002 9.80002 98.1002 9.80002C98.1002 10.1 97.6002 10.4 97.4002 10.6C97.6002 11.2 98.4002 11.2 98.7002 12C98.5002 12 98.3002 12.1 98.1002 12.1C98.1002 12.5 98.9002 13.3 97.9002 13.1C98.0002 13.6 98.1002 14 98.1002 14.5C97.8002 14.4 97.8002 14.2 97.4002 14.2C97.0002 14.6 97.1002 14.7 96.5002 14.9C96.5002 15 96.5002 15.1 96.4002 15.1H95.8002C95.8002 15.2 95.8002 15.3 95.9002 15.5H96.5002C96.5002 15.7 96.6002 15.8 96.7002 16C96.9002 15.9 96.9002 15.9 97.4002 15.9C97.6002 16.2 97.6002 16.2 97.7002 16.5C98.0002 16.3 98.3002 16.1 98.7002 16.2C99.0002 17.2 99.0002 17.2 99.1002 17.3C99.4002 17 99.5002 17 99.9002 16.8C99.9002 17.1 99.9002 17.4 99.8002 17.7C100.3 17.5 100.3 17.5 100.8 17.4C100.8 17.5 100.8 17.6 100.8 17.8C101.3 17.9 101.3 17.9 101.5 18C101.1 18.5 100.7 19 100.4 19.6C100.8 19.7 100.8 19.7 101.6 19.8C101.2 20.5 101.2 20.5 100.9 20.8C101.4 20.8 101.4 20.8 102.3 20.6C102.5 21.1 103 21.5 103.1 22H103.3C103.3 22.1 103.2 22.2 103.2 22.3H102.9C102.9 22.4 102.9 22.6 103 22.8C102.8 22.7 102.5 22.7 102.3 22.6C102.3 22.8 102.3 22.9 102.3 23.1C102.7 23.1 102.7 23.1 103 23.2C102.6 24.3 102.8 24.1 103.9 24.7C103.9 24.7 103.9 24.8 103.9 24.9C102.6 26.6 102.3 26.8 102.2 27C102.6 27 102.9 27 103.3 27C103.4 27.4 103.2 27.6 103.1 27.9C103.4 27.9 103.6 28 103.9 28C103.7 28.5 103.6 29 103.1 29.2V29.8C102.7 29.9 102.5 30 102.1 30.2C102.1 30.4 102 30.6 102 30.7C101.1 30.7 101.1 30.7 100.5 30.6C100.6 31.3 100.9 31.8 101 32.4C100.7 32.4 100.3 32.4 100 32.5C100 32.7 99.9002 32.8 99.9002 33C99.8002 33 99.6002 33 99.5002 33.1C99.5002 33.3 99.5002 33.4 99.4002 33.6C99.2002 33.6 99.2002 33.6 98.0002 33V34.3C97.3002 34.1 96.9002 33.3 96.3002 33.1C96.1002 34 96.1002 34 96.0002 34.2C95.8002 34.2 95.6002 34 95.4002 34C95.3002 34.2 95.2002 34.4 95.1002 34.6H94.8002C94.8002 34.6 94.7002 34.7 94.7002 34.8C94.5002 34.8 94.0002 34.5 93.7002 34.5C93.6002 34.7 93.6002 34.9 93.5002 35.1C92.0002 35 92.3002 35.1 91.3002 36.4H91.1002C90.8002 35.9 90.7002 35.9 90.0002 36.1C90.0002 35.9 90.0002 35.7 89.9002 35.6C89.5002 35.7 89.1002 35.7 88.7002 35.8C88.6002 35.5 88.6002 35.2 88.6002 34.9C88.5002 35 88.2002 35.3 87.9002 35.3C87.8002 34.8 87.9002 34.4 87.8002 33.8C87.6002 33.9 87.6002 33.9 87.1002 34.1C86.3002 35 85.6002 35.9 84.8002 36.8C84.3002 41.5 84.3002 46.4 84.9002 51.1C84.9002 51.2 85.0002 51.6 85.1002 51.8C102.8 52 118.3 53.6 128 56C111.5 54.7 86.5002 53.7 81.2002 53.7C75.3002 53.7 52.1002 54.6 35.0002 56C45.4002 53.4 62.3002 51.7 81.5002 51.7H81.8002C81.9002 51.7 81.9002 51.7 82.0002 51.7C81.6002 47.8 81.8002 43.9 81.7002 40C81.6002 39.6 81.5002 39.3 81.3002 38.9H81.2002C80.9002 37.9 78.7002 36.9 77.8002 36.4C77.8002 36.7 77.8002 37 77.7002 37.3C77.5002 37.4 77.5002 37.4 76.3002 37.3C76.4002 37.9 76.5002 38.4 76.5002 39C76.3002 39 75.4002 38.7 74.9002 38.6C74.7002 38.9 74.2002 39.9 73.8002 40C73.8002 39.6 73.7002 39.3 73.7002 38.9C73.6002 38.9 73.6002 39 73.5002 39V39.2C73.2002 39.3 73.2002 39.3 73.0002 39.3C72.9002 39.2 72.9002 39.1 72.9002 39C72.7002 39.1 72.5002 39.2 72.2002 39.2C72.1002 38.9 71.9002 38.6 71.8002 38.2C71.4002 38.6 71.4002 38.8 70.8002 38.9C70.8002 38.7 70.7002 38.6 70.7002 38.4C70.3002 38.4 70.0002 38.4 69.7002 38.5C69.8002 38 69.8002 38 70.2002 37C69.9002 37 69.6002 36.9 69.3002 36.9C69.3002 36.6 69.3002 36.4 69.3002 36.1C69.1002 36 68.8002 35.9 68.6002 35.8C68.5002 36 68.5002 36.2 68.5002 36.4C68.1002 36.3 68.1002 36.3 67.5002 36.1C67.4002 36.5 67.4002 36.5 67.3002 36.7C67.0002 36.4 67.0002 36.4 66.7002 36.1C66.5002 36.3 66.3002 36.6 66.1002 36.9H65.9002C65.7002 36.5 65.7002 36 65.7002 35.5C65.3002 35.8 65.1002 36 64.7002 36.1C64.8002 35.2 64.8002 35.2 64.7002 34.9C64.3002 35.1 64.3002 35.1 63.5002 35.2C63.5002 35.1 63.5002 35 63.5002 34.8C64.4002 33.8 64.4002 33.8 64.6002 33.7C64.6002 33.6 64.6002 33.4 64.5002 33.3H64.0002C63.9002 33.5 63.7002 33.6 63.5002 33.7C63.3002 33.2 63.3002 33.2 63.2002 33.1C62.8002 33.3 62.3002 33.7 61.8002 33.6C61.8002 33.2 62.0002 32.8 62.2002 32.5C62.1002 32.4 62.1002 32.4 61.7002 32.3C61.7002 32.2 61.6002 32.2 61.6002 32.1C61.9002 31.8 61.9002 31.8 62.2002 31.7V31.4C61.9002 31.4 61.7002 31.2 61.5002 31C62.4002 30.8 62.9002 30.9 63.7002 30.2C63.7002 30.1 63.7002 30 63.7002 29.9C63.5002 30 63.2002 30.1 63.0002 30.3C62.9002 29.7 63.9002 28.5 63.0002 28.5C62.9002 28.7 62.7002 29.1 62.5002 29.1C62.4002 28.9 62.3002 28.8 62.2002 28.6C62.0002 28.8 62.0002 28.9 61.7002 28.9C61.6002 28.7 61.5002 28.5 61.5002 28.3C61.3002 28.5 61.2002 28.7 60.8002 28.7C60.6002 28.1 60.6002 28.1 60.4002 27.9C60.2002 28 59.9002 28 59.7002 28.1C59.6002 28.1 59.6002 28 59.6002 28C59.8002 27.5 59.9002 27.4 60.3002 27C60.0002 26.9 60.0002 26.9 59.8002 26.6C59.9002 26.3 60.0002 26 60.2002 25.7C59.9002 25.7 59.4002 25.9 58.9002 25.8C58.9002 25.5 59.0002 25.4 59.1002 25.2C59.0002 25.1 58.9002 25.1 58.8002 25.1V25.2C59.1002 25.1 59.6002 25 59.7002 24.7C59.4002 24.6 59.0002 24.5 59.0002 24.1C59.6002 23.9 60.2002 23.5 60.8002 23.4C60.8002 23.1 60.8002 23.1 60.4002 22.4C60.8002 22.4 61.2002 22.4 61.6002 22.5C61.6002 22.4 61.6002 22.2 61.7002 22.1C62.1002 22.2 62.5002 22.4 62.9002 22.6C62.9002 22.1 62.9002 22.1 63.1002 21.5C63.5002 21.5 63.7002 21.6 64.1002 21.8C64.0002 21.4 63.8002 21.1 63.7002 20.7C64.0002 20.7 64.2002 20.7 64.6002 20.7C64.6002 20.2 64.3002 19.9 64.0002 19.5C64.6002 19.4 65.5002 19.2 66.0002 18.9V18.4C65.5002 18.4 65.0002 18.3 64.5002 18.3C64.5002 17.9 64.7002 17.6 64.9002 17.2C64.5002 17.2 64.6002 17.1 64.5002 16.7H63.8002C63.9002 16.5 64.0002 16.3 64.0002 16.1H64.2002C64.2002 15.8 64.6002 15.6 64.7002 15.1C64.4002 14.9 64.2002 14.7 63.9002 14.6V14.4C64.4002 14.2 65.1002 13.7 65.6002 13.6V13.4C66.3002 13.6 66.3002 13.6 67.1002 13.6C67.1002 13.5 67.0002 13.4 67.0002 13.3H66.8002C66.5002 12.8 66.5002 12.8 66.5002 12.5C67.2002 12.6 67.2002 12.6 67.6002 12.8C67.6002 12 67.6002 12 67.7002 12C67.9002 12.2 68.2002 12.3 68.4002 12.5C68.6002 12.3 68.6002 12.3 68.6002 12C68.3002 11.8 68.2002 11.7 68.1002 11.3C68.6002 11.2 68.9002 10.8 69.2002 10.4C68.0002 10.4 68.3002 10.1 67.8002 9C68.2002 9 68.5002 8.90002 68.9002 8.90002V8.70001C68.7002 8.60001 68.5002 8.60001 68.4002 8.60001C68.4002 8.50001 68.4002 8.50002 68.3002 8.40002C68.7002 8.10002 69.2002 7.8 69.6002 7.5C68.2002 7.4 68.2002 7.40002 68.0002 7.30002C68.0002 7.10002 68.1002 7.00001 68.2002 6.70001C68.7002 6.60001 69.4002 6.50001 69.8002 6.20001C69.7002 6.00001 69.7002 6.00002 69.7002 5.80002C70.0002 5.70002 70.2002 5.70001 70.5002 5.70001C70.5002 5.50001 70.4002 5.40001 70.4002 5.20001C71.3002 5.20001 71.7002 5.1 72.2002 4.5H72.4002C72.6002 4.8 72.7002 5.1 72.9002 5.5C73.1002 5.2 73.2002 5.00001 73.4002 4.70001H73.7002C73.8002 4.90001 73.9002 5.10002 74.0002 5.30002C74.4002 5.10002 74.3002 5 74.9002 5C75.0002 5.1 75.1002 5.20002 75.3002 5.40002C75.7002 5.30002 75.7002 5.3 76.0002 5C75.7002 4.8 75.3002 4.70002 75.2002 4.40002C75.4002 4.30002 75.5002 4.20001 75.7002 4.10001C75.4002 3.80001 75.0002 3.60002 74.7002 3.40002C75.1002 3.30002 75.5002 3.20001 75.9002 3.20001C75.9002 2.90001 75.9002 2.60002 75.8002 2.40002C76.2002 2.50002 76.2002 2.5 76.5002 2.5C76.7002 2.2 76.8002 1.8 77.0002 1.5C77.2002 1.5 77.2002 1.50002 78.0002 1.80002C78.0002 1.50002 78.0002 1.3 78.0002 1C78.4002 1 79.0002 1.20001 79.3002 1.10001C79.3002 1.00001 79.4002 0.900018 79.4002 0.800018C79.6002 0.800018 79.9002 0.800018 80.2002 0.800018C80.3002 1.00002 80.3002 1.20002 80.4002 1.40002C80.8002 1.20002 80.9002 0.900018 81.4002 0.800018C81.5002 1.00002 81.5002 1.2 81.6002 1.5C82.3002 1 82.3002 1.00001 82.4002 0.700012C82.6002 0.800012 82.9002 0.800024 83.1002 0.900024C83.5002 0.200024 83.5002 0.2 83.6002 0C84.2002 0 84.4002 0.500006 85.0002 0.600006C85.0002 0.500006 85.0002 0.400018 85.0002 0.300018H85.4002C85.6002 0.500018 85.7002 0.700024 85.9002 0.900024C86.4002 0.900024 86.6002 0.4 86.9002 0H87.1002C87.3002 0.4 87.6002 0.800012 87.9002 1.20001C88.1002 1.20001 88.2002 1.20002 88.4002 1.30002C88.3002 1.50002 88.3002 1.70002 88.3002 1.90002C88.4002 1.90002 88.6002 1.9 88.8002 2C88.5002 2.3 88.5002 2.50001 88.4002 2.70001ZM24.2002 59.8H32.7002H24.2002Z" fill="#007D42"/>
<path d="M155.8 103.7C155.6 104.1 155.5 104.4 155.2 104.7C155 104.9 154.7 105.1 154.4 105.2C154.1 105.3 153.8 105.3 153.5 105.3H153V103.9H153.4C153.7 103.9 154 103.8 154.1 103.7C154.3 103.6 154.4 103.4 154.5 103L154.9 101.8L152.1 94.2H153.8L155.7 99.8L157.5 94.2H159.2L155.8 103.7ZM150.8 96C150.6 95.8 150.4 95.7 150.3 95.6C150.1 95.5 149.9 95.5 149.6 95.5C149.2 95.5 148.8 95.7 148.5 96C148.2 96.3 148 96.7 148 97.3V102.1H146.4V94.2H148V95.1C148.2 94.8 148.5 94.6 148.9 94.4C149.3 94.2 149.7 94.1 150.1 94.1C150.5 94.1 150.8 94.2 151.1 94.3C151.4 94.4 151.7 94.6 152 94.9L150.8 96ZM143.4 102.1C143 102.1 142.7 102 142.4 101.9C142.1 101.8 141.9 101.6 141.7 101.4C141.5 101.2 141.4 101 141.3 100.7C141.2 100.4 141.2 100.2 141.2 99.9V95.5H140.3V94.3H141.2V91.9H142.8V94.3H144.3V95.5H142.8V99.8C142.8 100.1 142.9 100.3 143 100.5C143.1 100.7 143.4 100.7 143.7 100.7H144.4V102.1H143.4ZM139.3 99.7C139.3 100.1 139.2 100.5 139.1 100.8C138.9 101.1 138.7 101.4 138.4 101.6C138.1 101.8 137.8 102 137.3 102.1C136.9 102.2 136.5 102.3 136 102.3C135.4 102.3 134.8 102.2 134.2 102.1C133.6 102 133.1 101.7 132.7 101.2L133.7 100.2C134 100.5 134.4 100.8 134.8 100.9C135.2 101 135.6 101.1 136 101.1C136.5 101.1 136.9 101 137.2 100.8C137.5 100.6 137.7 100.4 137.7 100C137.7 99.7 137.6 99.5 137.5 99.3C137.3 99.1 137.1 99 136.7 99L135.4 98.9C134.6 98.8 134.1 98.6 133.7 98.3C133.3 98 133.1 97.4 133.1 96.7C133.1 96.3 133.2 96 133.3 95.7C133.5 95.4 133.7 95.1 133.9 94.9C134.2 94.7 134.5 94.5 134.8 94.4C135.2 94.3 135.5 94.2 136 94.2C136.6 94.2 137.1 94.3 137.6 94.4C138.1 94.5 138.5 94.8 138.9 95.1L137.9 96.1C137.6 95.9 137.4 95.7 137 95.7C136.7 95.6 136.3 95.6 135.9 95.6C135.4 95.6 135.1 95.7 134.8 95.9C134.6 96.1 134.4 96.3 134.4 96.6C134.4 96.8 134.5 97 134.6 97.2C134.8 97.4 135 97.5 135.5 97.5L136.8 97.6C137.6 97.7 138.1 97.9 138.5 98.2C139.1 98.4 139.3 99 139.3 99.7ZM129.2 90.9H130.9V92.6H129.2V90.9ZM129.3 94.2H130.9V102.1H129.3V94.2ZM125.2 102.1V97.3C125.2 96.7 125 96.2 124.7 96C124.4 95.7 124 95.6 123.6 95.6C123.4 95.6 123.2 95.6 123 95.7C122.8 95.8 122.6 95.9 122.5 96C122.3 96.1 122.2 96.3 122.1 96.5C122 96.7 122 97 122 97.2V102.1H120.4V97.3C120.4 96.7 120.2 96.2 119.9 96C119.6 95.7 119.2 95.6 118.8 95.6C118.4 95.6 118 95.7 117.6 96C117.3 96.3 117.1 96.7 117.1 97.3V102.1H115.5V94.2H117.1V95C117.4 94.7 117.7 94.5 118.1 94.3C118.5 94.1 118.9 94.1 119.3 94.1C120.3 94.1 121.1 94.5 121.6 95.3C122.2 94.5 123.1 94.1 124.1 94.1C124.5 94.1 124.9 94.2 125.2 94.3C125.5 94.4 125.8 94.6 126.1 94.8C126.4 95.1 126.6 95.4 126.8 95.8C126.9 96.2 127 96.6 127 97V102.1H125.2V102.1ZM111.9 97.5C111.9 97.3 111.9 97.1 111.8 96.9C111.8 96.8 111.7 96.6 111.6 96.4C111.5 96.1 111.3 95.8 111 95.7C110.7 95.5 110.4 95.4 110 95.4C109.6 95.4 109.3 95.5 109 95.7C108.7 95.9 108.5 96.1 108.4 96.4C108.3 96.6 108.3 96.7 108.2 96.9C108.2 97 108.2 97.2 108.2 97.5H111.9ZM108.3 98.6C108.3 99.3 108.5 99.8 108.8 100.2C109.1 100.6 109.6 100.8 110.3 100.8C110.7 100.8 111.1 100.7 111.4 100.6C111.7 100.5 112 100.3 112.2 100L113.2 100.9C113 101.1 112.8 101.3 112.6 101.4C112.4 101.5 112.2 101.7 111.9 101.8C111.7 101.9 111.4 102 111.1 102C110.8 102.1 110.5 102.1 110.2 102.1C109.7 102.1 109.2 102 108.8 101.9C108.4 101.8 108 101.5 107.7 101.2C107.4 100.9 107.1 100.5 106.9 99.9C106.7 99.4 106.6 98.7 106.6 98C106.6 96.7 106.9 95.7 107.5 95C108.1 94.3 108.9 93.9 110 93.9C110.5 93.9 111 94 111.4 94.2C111.8 94.4 112.2 94.6 112.5 95C112.8 95.3 113 95.7 113.2 96.2C113.4 96.7 113.4 97.2 113.4 97.8V98.5H108.3V98.6ZM103.1 102.1V97.2C103.1 96.6 102.9 96.2 102.6 95.9C102.3 95.6 101.9 95.5 101.5 95.5C101.1 95.5 100.7 95.6 100.4 95.9C100.1 96.2 99.9 96.6 99.9 97.2V102.1H98.3V91H99.9V95C100.2 94.7 100.5 94.5 100.8 94.3C101.2 94.2 101.5 94.1 101.9 94.1C102.3 94.1 102.7 94.2 103.1 94.3C103.4 94.4 103.7 94.6 104 94.9C104.2 95.2 104.4 95.5 104.5 95.8C104.6 96.2 104.7 96.6 104.7 97V102.1H103.1ZM96.4 101.1C96 101.5 95.6 101.8 95.2 102C94.8 102.2 94.3 102.3 93.8 102.3C93.4 102.3 92.9 102.2 92.5 102.1C92.1 102 91.7 101.7 91.4 101.4C91.1 101.1 90.8 100.6 90.6 100.1C90.4 99.6 90.3 98.9 90.3 98.2C90.3 97.5 90.4 96.8 90.6 96.3C90.8 95.8 91.1 95.4 91.4 95C91.7 94.7 92.1 94.5 92.5 94.3C92.9 94.2 93.4 94.1 93.8 94.1C94.4 94.1 94.8 94.2 95.2 94.4C95.6 94.6 96 94.9 96.4 95.3L95.3 96.4C95 96.1 94.8 95.9 94.6 95.8C94.4 95.7 94.1 95.6 93.8 95.6C93.2 95.6 92.7 95.8 92.3 96.3C92.1 96.5 92 96.8 91.9 97.1C91.8 97.4 91.8 97.8 91.8 98.3C91.8 98.8 91.8 99.2 91.9 99.5C92 99.8 92.1 100.1 92.3 100.3C92.7 100.8 93.1 101 93.8 101C94.1 101 94.4 100.9 94.6 100.8C94.8 100.7 95.1 100.5 95.3 100.2L96.4 101.1ZM84.2 102.1C83.8 102.1 83.5 102 83.2 101.9C82.9 101.8 82.7 101.6 82.5 101.4C82.3 101.2 82.2 101 82.1 100.7C82 100.4 82 100.2 82 99.9V90.9H83.6V99.8C83.6 100.1 83.7 100.3 83.8 100.5C83.9 100.7 84.1 100.7 84.5 100.7H85.2V102.1H84.2V102.1ZM78 98.6H76.1C75.6 98.6 75.3 98.7 75 98.9C74.8 99.1 74.6 99.4 74.6 99.8C74.6 100.2 74.7 100.4 75 100.6C75.2 100.8 75.6 100.9 76.1 100.9C76.4 100.9 76.7 100.9 76.9 100.8C77.1 100.8 77.4 100.6 77.6 100.4C77.8 100.2 77.9 99.8 77.9 99.2V98.6H78ZM78 102.1V101.4C77.7 101.7 77.4 101.9 77.1 102C76.8 102.1 76.4 102.2 75.9 102.2C75.4 102.2 75 102.1 74.6 102C74.3 101.9 74 101.7 73.7 101.5C73.3 101.1 73.1 100.5 73.1 99.8C73.1 99.1 73.3 98.6 73.8 98.2C74.3 97.8 74.9 97.6 75.9 97.6H78V97C78 96.5 77.9 96.1 77.6 95.9C77.3 95.7 76.9 95.5 76.3 95.5C75.9 95.5 75.5 95.6 75.3 95.7C75 95.8 74.8 96 74.6 96.3L73.6 95.3C74 94.9 74.4 94.6 74.8 94.4C75.2 94.2 75.8 94.2 76.4 94.2C78.6 94.2 79.7 95.1 79.7 96.9V102.2H78V102.1ZM69.7 102.1V97.3C69.7 96.7 69.5 96.2 69.2 96C68.9 95.7 68.5 95.6 68.1 95.6C67.6 95.6 67.3 95.7 66.9 96C66.6 96.3 66.4 96.7 66.4 97.3V102.1H64.8V94.2H66.4V95C66.7 94.7 67 94.5 67.4 94.3C67.8 94.2 68.2 94.1 68.5 94.1C68.9 94.1 69.3 94.2 69.6 94.3C69.9 94.4 70.2 94.6 70.5 94.8C70.8 95.1 71 95.4 71.1 95.8C71.2 96.2 71.3 96.6 71.3 97V102.1H69.7V102.1ZM61.1 98.1C61.1 97.7 61.1 97.3 61 96.9C60.9 96.5 60.8 96.2 60.5 96C60.2 95.7 59.8 95.6 59.3 95.6C58.8 95.6 58.4 95.7 58.1 96C57.9 96.2 57.7 96.6 57.6 96.9C57.5 97.3 57.5 97.7 57.5 98.1C57.5 98.5 57.5 98.9 57.6 99.3C57.7 99.7 57.8 100 58.1 100.2C58.4 100.5 58.8 100.7 59.3 100.7C59.8 100.7 60.2 100.5 60.5 100.2C60.7 100 60.9 99.6 61 99.3C61.1 99 61.1 98.6 61.1 98.1ZM62.7 98.1C62.7 98.8 62.6 99.4 62.5 99.9C62.4 100.4 62.1 100.9 61.7 101.3C61.4 101.6 61.1 101.8 60.7 102C60.3 102.2 59.8 102.3 59.3 102.3C58.8 102.3 58.3 102.2 57.9 102C57.5 101.8 57.2 101.6 56.9 101.3C56.5 100.9 56.3 100.4 56.2 99.9C56.1 99.4 56 98.8 56 98.1C56 97.4 56.1 96.8 56.2 96.3C56.3 95.8 56.6 95.3 56.9 94.9C57.2 94.6 57.5 94.4 57.9 94.2C58.3 94 58.8 93.9 59.3 93.9C59.8 93.9 60.3 94 60.7 94.2C61.1 94.4 61.4 94.6 61.7 94.9C62.1 95.3 62.3 95.8 62.5 96.3C62.6 96.9 62.7 97.5 62.7 98.1ZM52.3 90.9H54V92.6H52.3V90.9ZM52.3 94.2H53.9V102.1H52.3V94.2ZM50.4 99.7C50.4 100.1 50.3 100.5 50.1 100.8C49.9 101.1 49.7 101.4 49.4 101.6C49.1 101.8 48.8 102 48.3 102.1C47.9 102.2 47.5 102.3 47 102.3C46.4 102.3 45.7 102.2 45.2 102.1C44.6 102 44.1 101.7 43.7 101.2L44.8 100.2C45.1 100.5 45.5 100.8 45.9 100.9C46.3 101 46.7 101.1 47.1 101.1C47.6 101.1 48 101 48.3 100.8C48.6 100.6 48.8 100.4 48.8 100C48.8 99.7 48.7 99.5 48.6 99.3C48.4 99.1 48.2 99 47.8 99L46.5 98.9C45.7 98.8 45.2 98.6 44.8 98.3C44.4 98 44.2 97.4 44.2 96.7C44.2 96.3 44.3 96 44.4 95.7C44.6 95.4 44.8 95.1 45 94.9C45.3 94.7 45.6 94.5 46 94.4C46.4 94.3 46.7 94.2 47.2 94.2C47.8 94.2 48.3 94.3 48.8 94.4C49.3 94.5 49.7 94.8 50.1 95.1L49.1 96.1C48.8 95.9 48.6 95.7 48.2 95.7C47.9 95.6 47.5 95.6 47.1 95.6C46.6 95.6 46.3 95.7 46 95.9C45.8 96.1 45.6 96.3 45.6 96.6C45.6 96.8 45.7 97 45.8 97.2C45.9 97.4 46.2 97.5 46.7 97.5L47.9 97.6C48.7 97.7 49.2 97.9 49.6 98.2C50.2 98.4 50.4 99 50.4 99.7ZM42.7 99.7C42.7 100.1 42.6 100.5 42.4 100.8C42.2 101.1 42 101.4 41.7 101.6C41.4 101.8 41.1 102 40.6 102.1C40.2 102.2 39.8 102.3 39.3 102.3C38.7 102.3 38.1 102.2 37.5 102.1C36.9 102 36.4 101.7 36 101.2L37 100.2C37.3 100.5 37.7 100.8 38.1 100.9C38.5 101 38.9 101.1 39.3 101.1C39.8 101.1 40.2 101 40.5 100.8C40.8 100.6 41 100.4 41 100C41 99.7 40.9 99.5 40.8 99.3C40.6 99.1 40.4 99 40 99L38.7 98.9C37.9 98.8 37.4 98.6 37 98.3C36.6 98 36.4 97.4 36.4 96.7C36.4 96.3 36.5 96 36.6 95.7C36.8 95.4 37 95.1 37.2 94.9C37.5 94.7 37.8 94.5 38.1 94.4C38.5 94.3 38.8 94.2 39.3 94.2C39.9 94.2 40.4 94.3 40.9 94.4C41.4 94.5 41.8 94.8 42.2 95.1L41.2 96.1C40.9 95.9 40.7 95.7 40.3 95.7C40 95.6 39.6 95.6 39.2 95.6C38.7 95.6 38.4 95.7 38.1 95.9C37.9 96.1 37.7 96.3 37.7 96.6C37.7 96.8 37.8 97 37.9 97.2C38 97.4 38.3 97.5 38.8 97.5L40 97.6C40.8 97.7 41.3 97.9 41.7 98.2C42.4 98.4 42.7 99 42.7 99.7ZM33.1 97.5C33.1 97.3 33.1 97.1 33 96.9C33 96.8 32.9 96.6 32.8 96.4C32.7 96.1 32.5 95.8 32.2 95.7C31.9 95.5 31.6 95.4 31.2 95.4C30.8 95.4 30.5 95.5 30.2 95.7C29.9 95.9 29.7 96.1 29.6 96.4C29.5 96.6 29.5 96.7 29.4 96.9C29.4 97 29.4 97.2 29.4 97.5H33.1ZM29.5 98.6C29.5 99.3 29.7 99.8 30 100.2C30.3 100.6 30.8 100.8 31.5 100.8C31.9 100.8 32.3 100.7 32.6 100.6C32.9 100.5 33.2 100.3 33.4 100L34.4 100.9C34.2 101.1 34 101.3 33.8 101.4C33.6 101.5 33.4 101.7 33.1 101.8C32.9 101.9 32.6 102 32.3 102C32 102.1 31.7 102.1 31.4 102.1C30.9 102.1 30.4 102 30 101.9C29.6 101.8 29.2 101.5 28.9 101.2C28.6 100.9 28.3 100.5 28.1 99.9C27.9 99.4 27.8 98.7 27.8 98C27.8 96.7 28.1 95.7 28.7 95C29.3 94.3 30.1 93.9 31.1 93.9C31.6 93.9 32.1 94 32.5 94.2C32.9 94.4 33.3 94.6 33.6 95C33.9 95.3 34.1 95.7 34.3 96.2C34.4 96.7 34.5 97.2 34.5 97.8V98.5H29.5V98.6ZM25.3 95.5V102.1H23.7V95.5H22.8V94.3H23.7V93.1C23.7 92.8 23.7 92.6 23.8 92.3C23.9 92 24 91.8 24.2 91.6C24.4 91.4 24.6 91.2 24.9 91.1C25.2 91 25.5 90.9 25.9 90.9H26.9V92.3H26.2C25.9 92.3 25.7 92.4 25.5 92.5C25.4 92.7 25.3 92.9 25.3 93.2V94.3H26.9V95.5H25.3ZM19.7 98.1C19.7 97.7 19.7 97.3 19.6 96.9C19.5 96.5 19.4 96.2 19.1 96C18.8 95.7 18.4 95.6 17.9 95.6C17.4 95.6 17 95.7 16.7 96C16.5 96.2 16.3 96.6 16.2 96.9C16.1 97.3 16.1 97.7 16.1 98.1C16.1 98.5 16.1 98.9 16.2 99.3C16.3 99.7 16.4 100 16.7 100.2C17 100.5 17.4 100.7 17.9 100.7C18.4 100.7 18.8 100.5 19.1 100.2C19.3 100 19.5 99.6 19.6 99.3C19.7 99 19.7 98.6 19.7 98.1ZM21.3 98.1C21.3 98.8 21.2 99.4 21.1 99.9C21 100.4 20.7 100.9 20.3 101.3C20 101.6 19.7 101.8 19.3 102C18.9 102.2 18.4 102.3 17.9 102.3C17.4 102.3 16.9 102.2 16.5 102C16.1 101.8 15.8 101.6 15.5 101.3C15.1 100.9 14.9 100.4 14.8 99.9C14.7 99.4 14.6 98.8 14.6 98.1C14.6 97.4 14.7 96.8 14.8 96.3C14.9 95.8 15.2 95.3 15.5 94.9C15.8 94.6 16.1 94.4 16.5 94.2C16.9 94 17.4 93.9 17.9 93.9C18.4 93.9 18.9 94 19.3 94.2C19.7 94.4 20 94.6 20.3 94.9C20.7 95.3 20.9 95.8 21.1 96.3C21.2 96.9 21.3 97.5 21.3 98.1ZM13 96C12.8 95.8 12.6 95.7 12.5 95.6C12.3 95.5 12.1 95.5 11.8 95.5C11.4 95.5 11 95.7 10.7 96C10.4 96.3 10.2 96.7 10.2 97.3V102.1H8.60001V94.2H10.2V95.1C10.4 94.8 10.7 94.6 11.1 94.4C11.5 94.2 11.9 94.1 12.3 94.1C12.7 94.1 13 94.2 13.3 94.3C13.6 94.4 13.9 94.6 14.2 94.9L13 96ZM4.89999 98.1C4.89999 97.7 4.9 97.4 4.8 97.1C4.8 96.8 4.70001 96.5 4.60001 96.3C4.50001 96.1 4.30001 95.9 4.10001 95.7C3.90001 95.6 3.6 95.5 3.2 95.5C2.8 95.5 2.5 95.6 2.3 95.7C2.1 95.8 1.9 96 1.8 96.3C1.7 96.5 1.60001 96.8 1.60001 97.1C1.60001 97.4 1.5 97.8 1.5 98.1C1.5 98.5 1.50001 98.8 1.60001 99.1C1.60001 99.4 1.7 99.7 1.8 99.9C1.9 100.2 2.1 100.3 2.3 100.5C2.5 100.6 2.8 100.7 3.2 100.7C3.6 100.7 3.80001 100.6 4.10001 100.5C4.30001 100.4 4.50001 100.2 4.60001 99.9C4.70001 99.7 4.8 99.4 4.8 99.1C4.9 98.8 4.89999 98.5 4.89999 98.1ZM6.5 98.1C6.5 98.4 6.5 98.7 6.5 99C6.5 99.3 6.39999 99.6 6.39999 99.9C6.29999 100.2 6.20001 100.5 6.10001 100.7C6.00001 101 5.80001 101.2 5.60001 101.4C5.40001 101.6 5.1 101.8 4.8 101.9C4.5 102 4.1 102.1 3.7 102.1C3.3 102.1 2.90001 102 2.60001 101.9C2.30001 101.8 2 101.5 1.7 101.2V105.2H0V94.2H1.60001V95C1.90001 94.6 2.20001 94.4 2.60001 94.3C2.90001 94.2 3.3 94.1 3.8 94.1C4.2 94.1 4.59999 94.2 4.89999 94.3C5.19999 94.4 5.5 94.6 5.7 94.8C5.9 95 6.1 95.2 6.2 95.5C6.3 95.8 6.4 96 6.5 96.3C6.6 96.6 6.60001 96.9 6.60001 97.2C6.50001 97.5 6.5 97.8 6.5 98.1Z" fill="#007D42"/>
</svg>
