<svg xmlns="http://www.w3.org/2000/svg" viewBox="0 0 24.7773 24.84878"><defs><style>.cls-1{fill:#fff;}</style></defs><g id="Слой_2" data-name="Слой 2"><g id="Слой_1-2" data-name="Слой 1"><path class="cls-1" d="M24.46613,21.35182l-5.95077-6.1466c-.42546-.44085-.95924-.6173-1.19037-.39215-.23061.22316-.76489.04672-1.19183-.39413l-.0855-.08748a8.90784,8.90784,0,1,0-1.53578,1.5845l.03678.03876c.42546.44034.58451.98012.35139,1.20377-.23062.22515-.07354.76292.35338,1.20328l5.9468,6.14858a1.10992,1.10992,0,0,0,1.57059.02536l1.668-1.61332a1.1122,1.1122,0,0,0,.02733-1.57057ZM13.29073,13.2907a6.15975,6.15975,0,1,1,0-8.71119,6.16689,6.16689,0,0,1,0,8.71119Z"/></g></g></svg>